<svg width="32" height="32" viewBox="0 0 32 32" fill="none" xmlns="http://www.w3.org/2000/svg">
<path d="M26 26.0012H6V13.7812H26V26.0012ZM6.89 25.1213H25.11V14.6612H6.89V25.1213Z" fill="white"/>
<path d="M19.5723 18.5431C19.4546 18.5432 19.3416 18.4971 19.2575 18.4149C19.1734 18.3327 19.1249 18.2208 19.1223 18.1031V10.0031C19.1228 9.59609 19.0427 9.19295 18.8865 8.81705C18.7303 8.44115 18.5011 8.09994 18.2123 7.81315C17.6242 7.23057 16.83 6.90373 16.0023 6.90373C15.1745 6.90373 14.3803 7.23057 13.7923 7.81315C13.5034 8.09994 13.2742 8.44115 13.118 8.81705C12.9618 9.19295 12.8817 9.59609 12.8823 10.0031V18.1031C12.8662 18.2097 12.8125 18.307 12.7308 18.3773C12.6492 18.4476 12.545 18.4863 12.4373 18.4863C12.3295 18.4863 12.2253 18.4476 12.1437 18.3773C12.062 18.307 12.0083 18.2097 11.9923 18.1031V10.0031C11.9893 9.47643 12.0922 8.95448 12.2949 8.46832C12.4976 7.98216 12.796 7.54171 13.1723 7.17315C13.5437 6.80124 13.9849 6.5062 14.4705 6.30491C14.9561 6.10361 15.4766 6 16.0023 6C16.5279 6 17.0484 6.10361 17.534 6.30491C18.0196 6.5062 18.4608 6.80124 18.8323 7.17315C19.2067 7.54255 19.5033 7.98338 19.7042 8.4695C19.9052 8.95562 20.0066 9.47714 20.0023 10.0031V18.1031C20.0023 18.2181 19.9573 18.3286 19.8769 18.4108C19.7966 18.493 19.6872 18.5405 19.5723 18.5431Z" fill="white"/>
</svg>
